<?xml version="1.0" encoding="iso-8859-1"?>
<!-- Generator: Adobe Illustrator 19.0.0, SVG Export Plug-In . SVG Version: 6.00 Build 0)  -->
<svg version="1.1" id="Capa_1" xmlns="http://www.w3.org/2000/svg" xmlns:xlink="http://www.w3.org/1999/xlink" x="0px" y="0px"
	 viewBox="0 0 428.637 428.637" style="enable-background:new 0 0 428.637 428.637;" xml:space="preserve">
<path id="XMLID_1511_" d="M215.412,206.172c0-5.247,4.253-9.5,9.5-9.5h21.25c5.247,0,9.5,4.253,9.5,9.5s-4.253,9.5-9.5,9.5h-21.25
	C219.665,215.672,215.412,211.419,215.412,206.172z M224.912,328.111h21.25c5.247,0,9.5-4.253,9.5-9.5s-4.253-9.5-9.5-9.5h-21.25
	c-5.247,0-9.5,4.253-9.5,9.5S219.665,328.111,224.912,328.111z M224.775,365.591H246.3c5.247,0,9.5-4.253,9.5-9.5
	s-4.253-9.5-9.5-9.5h-21.524c-5.247,0-9.5,4.253-9.5,9.5S219.528,365.591,224.775,365.591z M324.808,103.624v39.502
	c0,5.247-4.253,9.5-9.5,9.5h-6.165l-8.675,256.663c-0.363,10.848-9.001,19.348-19.663,19.348H163.139
	c-10.659,0-19.297-8.498-19.664-19.347l-2.811-83.165c-22.031-2.728-39.141-21.563-39.141-44.32
	c0-15.081,14.354-40.711,30.348-67.873c1.819-3.091,3.459-5.874,4.728-8.097l-1.8-53.209h-6.161c-5.247,0-9.5-4.253-9.5-9.5v-39.502
	c0-5.247,4.253-9.5,9.5-9.5h15.502V64.122c0-5.247,4.253-9.5,9.5-9.5h39.47L192.802,19H171.59c-5.247,0-9.5-4.253-9.5-9.5
	s4.253-9.5,9.5-9.5h30.608c0.014,0,0.027,0.001,0.041,0H241.7c0.015,0,0.029,0.001,0.042,0h48.562
	c20.297,0,36.81,16.513,36.81,36.811c0,17.014-11.603,31.369-27.31,35.568v21.745h15.504
	C320.555,94.124,324.808,98.377,324.808,103.624z M251.305,19l0.309,35.622h38.69c9.82,0,17.81-7.99,17.81-17.812
	c0-9.82-7.989-17.811-17.81-17.811H251.305z M211.802,19l0.309,35.622h20.502L232.304,19H211.802z M163.14,94.124h117.664V73.622
	H163.14V94.124z M171.842,281.805c0-10.309-16.597-39.276-25.659-54.728c-9.063,15.451-25.659,44.419-25.659,54.728
	c0,14.148,11.511,25.659,25.659,25.659S171.842,295.953,171.842,281.805z M290.132,152.626H153.811l1.789,52.915
	c1.29,2.269,2.993,5.162,4.895,8.391c15.993,27.162,30.348,52.792,30.348,67.873c0,19.946-13.144,36.88-31.226,42.595l2.847,84.247
	c0.019,0.527,0.334,0.99,0.676,0.99h117.666c0.342,0,0.656-0.462,0.675-0.987L290.132,152.626z M305.808,113.124h-167.67v20.502
	h167.67V113.124z M224.912,290.631h21.25c5.247,0,9.5-4.253,9.5-9.5s-4.253-9.5-9.5-9.5h-21.25c-5.247,0-9.5,4.253-9.5,9.5
	S219.665,290.631,224.912,290.631z M224.912,253.151h21.25c5.247,0,9.5-4.253,9.5-9.5s-4.253-9.5-9.5-9.5h-21.25
	c-5.247,0-9.5,4.253-9.5,9.5S219.665,253.151,224.912,253.151z"/>
<g>
</g>
<g>
</g>
<g>
</g>
<g>
</g>
<g>
</g>
<g>
</g>
<g>
</g>
<g>
</g>
<g>
</g>
<g>
</g>
<g>
</g>
<g>
</g>
<g>
</g>
<g>
</g>
<g>
</g>
</svg>
