<?xml version="1.0" encoding="iso-8859-1"?>
<!-- Generator: Adobe Illustrator 19.0.0, SVG Export Plug-In . SVG Version: 6.00 Build 0)  -->
<svg version="1.1" id="Capa_1" xmlns="http://www.w3.org/2000/svg" xmlns:xlink="http://www.w3.org/1999/xlink" x="0px" y="0px"
	 viewBox="0 0 439.684 439.684" style="enable-background:new 0 0 439.684 439.684;" xml:space="preserve">
<path id="XMLID_586_" d="M216.906,183.208v19.896c0,9.974,8.114,18.088,18.087,18.088c5.247,0,9.5,4.253,9.5,9.5s-4.253,9.5-9.5,9.5
	c-20.451,0-37.088-16.638-37.088-37.088v-19.896c0-5.247,4.253-9.5,9.5-9.5S216.906,177.961,216.906,183.208z M142.796,402.264
	v27.92c0,5.247-4.253,9.5-9.5,9.5H21.616c-5.247,0-9.5-4.253-9.5-9.5v-27.92c0-17.351,11.872-31.982,27.919-36.197v-23.331
	c-16.047-4.216-27.919-18.848-27.919-36.199V43.472c0-20.633,16.787-37.419,37.42-37.419h55.84
	c20.633,0,37.418,16.786,37.418,37.419v25.077c0,5.247-4.253,9.5-9.5,9.5s-9.5-4.253-9.5-9.5V43.472
	c0-10.156-8.263-18.419-18.418-18.419h-55.84c-10.157,0-18.42,8.263-18.42,18.419v263.064c0,10.119,8.202,18.359,18.307,18.421
	c0.083-0.002,0.166-0.002,0.25,0h55.564c0.084-0.002,0.166-0.001,0.25,0c5.37-0.033,10.458-2.442,13.975-6.621
	c3.377-4.014,9.371-4.53,13.386-1.151c4.014,3.378,4.53,9.371,1.151,13.386c-5.056,6.008-11.745,10.206-19.124,12.155v23.341
	C130.923,370.281,142.796,384.913,142.796,402.264z M59.035,364.845h36.841v-20.888H59.035V364.845z M123.796,402.264
	c0-10.156-8.263-18.419-18.419-18.419H49.535c-10.156,0-18.419,8.263-18.419,18.419v18.42h92.68V402.264z M427.568,230.691
	c0,48.108-39.137,87.245-87.243,87.245c-48.106,0-87.244-39.137-87.244-87.242v-51.832c0-18.322,13.985-33.438,31.841-35.234
	l4.242-43.433c0.475-4.865,4.566-8.576,9.455-8.576h13.586L261.992,25.33l-49.255,66.288h13.806c4.889,0,8.98,3.711,9.455,8.576
	l4.294,43.969c3.45,1.424,5.878,4.821,5.878,8.785c0,5.247-4.253,9.5-9.5,9.5h-4.964c-0.076,0-0.151,0-0.226,0h-46.643
	c-15.705,0-30.185,5.331-41.73,14.28c-0.489,0.486-1.029,0.918-1.611,1.288c-15.195,12.526-24.9,31.489-24.9,52.674
	c0,37.632,30.613,68.245,68.242,68.245c19.19,0,37.637-8.237,50.61-22.601c3.517-3.893,9.524-4.199,13.417-0.682
	c3.894,3.517,4.199,9.524,0.682,13.418c-16.569,18.344-40.154,28.864-64.709,28.864c-48.105,0-87.242-39.137-87.242-87.242
	c0-26.101,11.517-49.559,29.739-65.561l6.341-64.938c0.475-4.865,4.566-8.576,9.455-8.576h45.935l65.227-87.784
	c1.783-2.399,4.592-3.82,7.582-3.834c2.991-0.012,5.812,1.381,7.617,3.764l66.55,87.854h45.987c4.889,0,8.979,3.711,9.455,8.576
	l6.344,64.938C416.05,181.134,427.568,204.591,427.568,230.691z M193.946,110.618c-0.074,0-0.147,0-0.221,0h-41.976l-4.016,41.119
	c11.265-5.315,23.844-8.289,37.104-8.289h36.294l-3.206-32.83H193.946z M304.03,143.448h36.295c13.26,0,25.838,2.974,37.103,8.289
	l-4.017-41.119h-41.982c-0.069,0-0.139,0-0.206,0h-23.987L304.03,143.448z M408.568,230.693c0-21.187-9.705-40.149-24.9-52.676
	c-0.583-0.371-1.124-0.804-1.613-1.29c-11.544-8.947-26.026-14.279-41.729-14.279h-46.644c-0.075,0-0.151,0-0.226,0h-4.963
	c-9.049,0-16.412,7.363-16.412,16.413v24.243c0,9.974,8.114,18.088,18.088,18.088c9.975,0,18.089-8.114,18.089-18.088v-19.896
	c0-5.247,4.253-9.5,9.5-9.5s9.5,4.253,9.5,9.5v19.896c0,20.45-16.638,37.088-37.089,37.088c-6.493,0-12.602-1.677-17.916-4.621
	c2.509,35.361,32.082,63.364,68.072,63.364C377.954,298.936,408.568,268.322,408.568,230.693z"/>
<g>
</g>
<g>
</g>
<g>
</g>
<g>
</g>
<g>
</g>
<g>
</g>
<g>
</g>
<g>
</g>
<g>
</g>
<g>
</g>
<g>
</g>
<g>
</g>
<g>
</g>
<g>
</g>
<g>
</g>
</svg>
