<?xml version="1.0" encoding="iso-8859-1"?>
<!-- Generator: Adobe Illustrator 19.0.0, SVG Export Plug-In . SVG Version: 6.00 Build 0)  -->
<svg version="1.1" id="Capa_1" xmlns="http://www.w3.org/2000/svg" xmlns:xlink="http://www.w3.org/1999/xlink" x="0px" y="0px"
	 viewBox="0 0 416.207 416.207" style="enable-background:new 0 0 416.207 416.207;" xml:space="preserve">
<path id="XMLID_158_" d="M171.311,283.287h-22.827V252.41h7.977c5.247,0,9.5-4.253,9.5-9.5s-4.253-9.5-9.5-9.5H37.524L19,59.898
	V20.027h20.748v40.377c0,5.247,4.253,9.5,9.5,9.5s9.5-4.253,9.5-9.5V20.027h20.746v40.377c0,5.247,4.253,9.5,9.5,9.5
	s9.5-4.253,9.5-9.5V20.027h20.745v40.377c0,5.247,4.253,9.5,9.5,9.5s9.5-4.253,9.5-9.5V20.027h20.744v40.377
	c0,5.247,4.253,9.5,9.5,9.5h17.352l-9.823,48.738c-1.037,5.144,2.292,10.153,7.436,11.189c5.141,1.036,10.153-2.293,11.19-7.436
	l15.055-75.458l20.447,3.486l-6.705,35.451c-0.975,5.155,2.414,10.125,7.569,11.101c5.155,0.972,10.125-2.414,11.1-7.569
	l8.502-44.956c0.474-2.505-0.079-5.095-1.534-7.188c-1.455-2.093-3.69-3.514-6.204-3.942l-39.18-6.681
	c-5.106-0.867-9.969,2.511-10.931,7.6l-3.151,16.665h-11.622V10.527c0-5.247-4.253-9.5-9.5-9.5H9.5c-5.247,0-9.5,4.253-9.5,9.5
	v49.877c0,0.337,0.018,0.674,0.054,1.009l19.431,182.003v49.371c0,5.247,4.253,9.5,9.5,9.5h142.326c5.247,0,9.5-4.253,9.5-9.5
	S176.557,283.287,171.311,283.287z M84.052,283.287H38.484V252.41h45.567V283.287z M129.483,283.287h-26.432V252.41h26.432V283.287z
	 M406.707,113.92H247.725c-5.247,0-9.5,4.253-9.5,9.5v40.377h-11.623l-3.15-16.662c-0.962-5.09-5.823-8.469-10.931-7.601
	l-39.179,6.68c-2.513,0.429-4.748,1.85-6.204,3.942c-1.455,2.093-2.008,4.684-1.534,7.188l37.552,199.343v48.993
	c0,5.247,4.253,9.5,9.5,9.5h174.567c5.247,0,9.5-4.253,9.5-9.5v-49.37l19.431-182.004c0.036-0.335,0.054-0.672,0.054-1.009V123.42
	C416.207,118.173,411.954,113.92,406.707,113.92z M267.724,396.18h-45.568v-30.876h45.568V396.18z M313.155,396.18h-26.432v-30.876
	h26.432V396.18z M377.723,396.18h-45.567v-30.876h45.567V396.18z M397.207,172.791l-18.524,173.513H220.541L186.07,163.318
	l20.446-3.486l2.879,15.229c0.01,0.056,0.021,0.111,0.033,0.166l9.4,49.71c0.975,5.155,5.946,8.541,11.1,7.569
	c5.155-0.976,8.544-5.945,7.569-11.101l-7.301-38.609h17.528c5.247,0,9.5-4.253,9.5-9.5V132.92h20.746v40.377
	c0,5.247,4.253,9.5,9.5,9.5s9.5-4.253,9.5-9.5V132.92h20.744v40.377c0,5.247,4.253,9.5,9.5,9.5s9.5-4.253,9.5-9.5V132.92h20.746
	v40.377c0,5.247,4.253,9.5,9.5,9.5s9.5-4.253,9.5-9.5V132.92h20.748V172.791z M299.941,256.225
	c-31.697,0-57.484,25.786-57.484,57.48c0,1.093,0.034,2.208,0.104,3.409c0.291,5.025,4.45,8.951,9.484,8.951h95.792
	c5.038,0,9.199-3.932,9.485-8.961c0.068-1.205,0.102-2.316,0.102-3.399C357.422,282.011,331.636,256.225,299.941,256.225z
	 M262.03,307.065c3.155-18.065,18.955-31.841,37.911-31.841c18.955,0,34.752,13.775,37.908,31.841H262.03z M78.358,194.173h67.382
	c5.247,0,9.5,4.253,9.5,9.5s-4.253,9.5-9.5,9.5H68.372c-5.038,0-9.2-3.933-9.485-8.962c-0.068-1.207-0.102-2.318-0.102-3.399
	c0-31.694,25.786-57.48,57.481-57.48c10.21,0,20.243,2.715,29.016,7.852c4.527,2.651,6.048,8.472,3.397,12.999
	c-2.65,4.528-8.469,6.048-12.999,3.397c-5.862-3.434-12.576-5.248-19.414-5.248C97.312,162.331,81.513,176.107,78.358,194.173z"/>
<g>
</g>
<g>
</g>
<g>
</g>
<g>
</g>
<g>
</g>
<g>
</g>
<g>
</g>
<g>
</g>
<g>
</g>
<g>
</g>
<g>
</g>
<g>
</g>
<g>
</g>
<g>
</g>
<g>
</g>
</svg>
