<?xml version="1.0" encoding="iso-8859-1"?>
<!-- Generator: Adobe Illustrator 19.0.0, SVG Export Plug-In . SVG Version: 6.00 Build 0)  -->
<svg version="1.1" id="Capa_1" xmlns="http://www.w3.org/2000/svg" xmlns:xlink="http://www.w3.org/1999/xlink" x="0px" y="0px"
	 viewBox="0 0 433.023 433.023" style="enable-background:new 0 0 433.023 433.023;" xml:space="preserve">
<path id="XMLID_73_" d="M432.338,255.34c0.152-1.263,0.216-2.54,0.188-3.821c-0.853-38.781-27.521-42.854-58.4-47.57
	c-7.433-1.135-15.857-2.422-24.693-4.231c-61.024-12.501-114.014-42.621-157.494-89.524c-1.798-1.938-4.322-3.041-6.967-3.041
	h-31.877c-3.791,0-7.22,2.254-8.722,5.735c-8.716,20.19-28.024,33.236-49.19,33.236s-40.474-13.046-49.189-33.236
	c-1.502-3.481-4.931-5.735-8.722-5.735H15.754c-5.17,0-9.391,4.135-9.498,9.304c-0.287,13.853-1.753,28.347-3.17,42.364
	c-3.72,36.787-7.247,71.66,9.648,94.983c-6.106,6.639-9.718,15.998-9.718,26.188v9.922c0,19.827,13.934,35.957,31.06,35.957h254.762
	c66.573,0,115.796-13.889,135.048-38.104C431.577,278.091,434.48,266.918,432.338,255.34z M21.99,160.731
	c1.147-11.345,2.325-22.995,2.921-34.579h6.403c12.753,23.869,37.192,38.972,63.869,38.972s51.116-15.103,63.87-38.972h21.806
	c3.166,3.335,6.386,6.596,9.645,9.766l-7.099,8.997c-3.25,4.119-2.546,10.093,1.573,13.343c4.12,3.249,10.093,2.544,13.343-1.573
	l6.213-7.874c3.656,3.17,7.362,6.241,11.124,9.218l-6.531,8.276c-3.25,4.119-2.546,10.093,1.573,13.343s10.092,2.546,13.343-1.573
	l6.869-8.705c3.964,2.764,7.988,5.432,12.058,7.994l-5.829,7.387c-3.25,4.118-2.546,10.092,1.573,13.343
	c4.119,3.249,10.093,2.546,13.343-1.573l7.46-9.454c4.306,2.346,8.67,4.587,13.084,6.719l-4.988,6.32
	c-3.251,4.119-2.547,10.093,1.571,13.343c4.119,3.251,10.094,2.546,13.343-1.571l8-10.137c8.723,3.538,17.631,6.682,26.734,9.431
	c-13.037,18.293-37.321,25.867-58.821,17.255c-0.398-0.267-0.821-0.507-1.269-0.716c-31.805-14.9-62.267-33.6-93.123-57.164
	c-0.346-0.276-3.151-1.658-4.212-1.923c-1.693-0.423-5.693-0.204-7.838,2.072c-0.731,0.776-2.515,3.271-2.683,3.682
	c-8.374,19.158-31.509,32.521-56.341,32.521c-11.381,0-39.227-3.186-51.966-32.695c-1.502-3.481-4.931-5.735-8.722-5.735H21.214
	C21.467,165.902,21.728,163.323,21.99,160.731z M288.838,306.871H34.076c-6.537,0-12.06-7.766-12.06-16.957v-9.922
	c0-5.066,1.721-9.841,4.48-13.035c12.202,8.05,28.667,11.989,49.893,11.989h329.938
	C388.827,296.498,345.529,306.871,288.838,306.871z M413.332,253.953c-0.326,1.455-1.043,2.787-2.101,3.868
	c-1.341,1.37-3.038,2.125-4.779,2.125H76.39c-19.867,0-34.011-3.801-43.048-11.595c-0.22-0.216-2.205-2.063-2.904-2.836
	c-11.305-12.505-12.444-33.744-10.847-58.049h6.732c12.901,24.188,37.37,38.431,66.65,38.431c28.268,0,54.238-13.204,68.16-33.785
	c28.518,21.013,56.887,38.102,86.39,52.056c0.55,0.402,1.152,0.751,1.803,1.036c32.428,14.214,70.025,1.25,87.157-28.881
	c3.027,0.711,6.07,1.38,9.137,2.008c9.306,1.906,17.982,3.231,25.637,4.4c32.424,4.952,41.793,7.353,42.273,29.205
	C413.543,252.488,413.356,253.821,413.332,253.953z"/>
<g>
</g>
<g>
</g>
<g>
</g>
<g>
</g>
<g>
</g>
<g>
</g>
<g>
</g>
<g>
</g>
<g>
</g>
<g>
</g>
<g>
</g>
<g>
</g>
<g>
</g>
<g>
</g>
<g>
</g>
</svg>
