<?xml version="1.0" encoding="iso-8859-1"?>
<!-- Generator: Adobe Illustrator 19.0.0, SVG Export Plug-In . SVG Version: 6.00 Build 0)  -->
<svg version="1.1" id="Capa_1" xmlns="http://www.w3.org/2000/svg" xmlns:xlink="http://www.w3.org/1999/xlink" x="0px" y="0px"
	 viewBox="0 0 435.048 435.048" style="enable-background:new 0 0 435.048 435.048;" xml:space="preserve">
<path id="XMLID_733_" d="M434.459,277.392c0,0-20.282-55.121-20.632-55.804l-52.91-103.356c-1.623-3.171-4.884-5.167-8.445-5.171
	l-269.717-0.3c-0.004,0-0.007,0-0.011,0c-3.565,0-6.831,1.997-8.456,5.171L21.224,221.589c-0.348,0.678-20.635,55.804-20.635,55.804
	c-1.077,2.915-0.661,6.173,1.115,8.724c1.776,2.55,4.688,4.07,7.796,4.07h7.563v11.799c0,11.194,9.106,20.302,20.3,20.302h63.233
	c11.194,0,20.302-9.107,20.302-20.302v-11.799h193.248v11.799c0,11.194,9.107,20.302,20.302,20.302h63.235
	c11.193,0,20.3-9.107,20.3-20.302v-11.799h7.564c3.107,0,6.02-1.521,7.796-4.07C435.12,283.565,435.536,280.307,434.459,277.392z
	 M88.55,131.768l258.099,0.286l43.187,84.363H45.216L88.55,131.768z M101.899,301.985c0,0.693-0.608,1.302-1.302,1.302H37.364
	c-0.692,0-1.3-0.608-1.3-1.302v-11.799h65.835V301.985z M398.984,301.985c0,0.693-0.607,1.302-1.3,1.302h-63.235
	c-0.693,0-1.302-0.608-1.302-1.302v-11.799h65.837V301.985z M23.14,271.186l13.222-35.769h362.326l13.221,35.769H23.14z"/>
<g>
</g>
<g>
</g>
<g>
</g>
<g>
</g>
<g>
</g>
<g>
</g>
<g>
</g>
<g>
</g>
<g>
</g>
<g>
</g>
<g>
</g>
<g>
</g>
<g>
</g>
<g>
</g>
<g>
</g>
</svg>
