<?xml version="1.0" encoding="iso-8859-1"?>
<!-- Generator: Adobe Illustrator 19.0.0, SVG Export Plug-In . SVG Version: 6.00 Build 0)  -->
<svg version="1.1" id="Capa_1" xmlns="http://www.w3.org/2000/svg" xmlns:xlink="http://www.w3.org/1999/xlink" x="0px" y="0px"
	 viewBox="0 0 433.746 433.746" style="enable-background:new 0 0 433.746 433.746;" xml:space="preserve">
<path id="XMLID_314_" d="M82.636,356.054c3.464-3.94,3.078-9.943-0.863-13.407c-8.568-7.531-16.331-15.728-23.261-24.551
	c14.129,0.716,28.315,0.723,42.371,0.021c5.24-0.263,9.276-4.723,9.014-9.963s-4.714-9.279-9.963-9.014
	c-18.272,0.915-36.772,0.569-55.063-1.025c-4.706-7.985-8.833-16.376-12.368-25.148c-3.973-9.861-7.068-19.932-9.286-30.112
	c63.334,10.361,128.037,3.188,187.979-20.964c59.937-24.149,111.533-63.824,149.991-115.188
	c5.437,8.808,10.205,18.195,14.201,28.113c3.522,8.744,6.353,17.681,8.488,26.736c-20.085,23.001-42.767,43.679-67.481,61.513
	c-4.255,3.07-5.215,9.009-2.145,13.264c3.071,4.254,9.009,5.215,13.263,2.145c21.739-15.688,41.979-33.478,60.364-53.042
	c2.773,27.557-0.682,55.588-10.399,82.067c-1.808,4.925,0.72,10.384,5.646,12.191c4.926,1.804,10.384-0.721,12.191-5.646
	c13.176-35.905,15.914-74.395,8.279-111.323c-0.055-0.364-0.13-0.726-0.227-1.082c-2.444-11.507-5.896-22.854-10.356-33.923
	c-6.258-15.531-14.219-29.866-23.591-42.889c-0.16-0.245-0.332-0.482-0.516-0.714c-16.109-22.182-36.295-40.493-59.071-54.307
	c-0.262-0.207-1.68-1.077-2.122-1.27c-21.456-12.662-45.12-21.363-69.762-25.573c-0.788-0.237-3.359-0.546-3.836-0.618
	c-34.795-5.263-71.407-1.595-106.343,12.48C77.269,35.172,37.714,73.968,16.392,124.065s-21.859,105.499-1.512,156
	c12.035,29.875,30.321,55.731,54.349,76.853c1.804,1.586,4.041,2.364,6.268,2.364C78.134,359.282,80.758,358.19,82.636,356.054z
	 M134.871,32.447c26.864-10.823,54.793-14.862,81.907-12.931c-18.683,20.658-41.919,36.895-68.017,47.409
	C122.621,77.46,94.567,81.86,66.737,79.902C85.29,59.336,108.424,43.103,134.871,32.447z M33.874,131.506
	c5.143-12.083,11.455-23.44,18.813-33.951c34.825,4.677,70.371,0.215,103.176-13.006c32.77-13.202,61.451-34.591,83.294-62.055
	c17.881,3.501,35.152,9.62,51.209,18.102c-28.47,41.463-68.07,73.217-115.083,92.158c-47.042,18.954-97.627,23.519-146.922,13.349
	C29.987,141.189,31.824,136.322,33.874,131.506z M23.312,164.458c53.35,11.257,108.148,6.438,159.072-14.081
	c50.892-20.504,93.699-54.985,124.338-100.04c16.181,10.795,30.75,24.188,42.997,39.881c-36.74,51.056-86.955,90.41-145.623,114.049
	c-58.686,23.645-122.185,30.091-184.078,18.749C17.957,203.479,19.058,183.752,23.312,164.458z M349.256,349.772
	c-1.519,0.899-3.187,1.328-4.832,1.328c-3.247,0-6.409-1.665-8.183-4.661c-17.258-29.143-48.99-47.246-82.814-47.246
	c-5.247,0-9.5-4.253-9.5-9.5s4.253-9.5,9.5-9.5c40.504,0,78.501,21.674,99.163,56.564C355.263,341.272,353.77,347.1,349.256,349.772
	z M424.246,371.123h-13.389c-5.305-35.218-22.513-67.562-49.03-91.829c-28.851-26.405-66.293-40.946-105.431-40.946
	c-39.137,0-76.58,14.541-105.431,40.946c-26.517,24.268-43.725,56.611-49.031,91.829H88.548c-5.247,0-9.5,4.253-9.5,9.5v43.568
	c0,5.247,4.253,9.5,9.5,9.5h335.698c5.247,0,9.5-4.253,9.5-9.5v-43.568C433.746,375.376,429.492,371.123,424.246,371.123z
	 M256.396,257.348c67.671,0,124.072,48.221,135.227,113.775H121.168C132.324,305.568,188.726,257.348,256.396,257.348z
	 M414.746,414.691H98.048v-24.568h316.698V414.691z"/>
<g>
</g>
<g>
</g>
<g>
</g>
<g>
</g>
<g>
</g>
<g>
</g>
<g>
</g>
<g>
</g>
<g>
</g>
<g>
</g>
<g>
</g>
<g>
</g>
<g>
</g>
<g>
</g>
<g>
</g>
</svg>
