<?xml version="1.0" encoding="iso-8859-1"?>
<!-- Generator: Adobe Illustrator 19.0.0, SVG Export Plug-In . SVG Version: 6.00 Build 0)  -->
<svg version="1.1" id="Capa_1" xmlns="http://www.w3.org/2000/svg" xmlns:xlink="http://www.w3.org/1999/xlink" x="0px" y="0px"
	 viewBox="0 0 435.193 435.193" style="enable-background:new 0 0 435.193 435.193;" xml:space="preserve">
<path id="XMLID_98_" d="M250.713,106.518c0-5.247,4.253-9.5,9.5-9.5h21.249c5.247,0,9.5,4.253,9.5,9.5s-4.253,9.5-9.5,9.5h-21.249
	C254.966,116.018,250.713,111.765,250.713,106.518z M168.043,307.225H25.726v-68.662h126.696c5.247,0,9.5-4.253,9.5-9.5
	s-4.253-9.5-9.5-9.5H25.726v-60.756c0-2.896,2.447-5.343,5.344-5.343h112.203c5.247,0,9.5-4.253,9.5-9.5s-4.253-9.5-9.5-9.5H50.571
	v-29.676h80.588c5.247,0,9.5-4.253,9.5-9.5s-4.253-9.5-9.5-9.5H41.071c-5.247,0-9.5,4.253-9.5,9.5v39.176h-0.502
	c-13.423,0-24.344,10.92-24.344,24.343v236.109c0,13.422,10.921,24.342,24.344,24.342h125.569c5.247,0,9.5-4.253,9.5-9.5
	s-4.253-9.5-9.5-9.5H31.069c-2.896,0-5.344-2.446-5.344-5.342v-68.691h142.317c5.247,0,9.5-4.253,9.5-9.5
	S173.29,307.225,168.043,307.225z M428.468,87.419v113.479c0,5.247-4.253,9.5-9.5,9.5s-9.5-4.253-9.5-9.5V87.419
	c0-7.609-6.19-13.8-13.799-13.8h-9.557c-7.08,100.225-24.478,177.011-49.554,219.413c5.409,3.259,8.924,8.401,9.177,14.325
	l8.53,71.61c1.697,1.399,2.909,3.386,3.313,5.688l6.921,39.395c0.486,2.765-0.275,5.603-2.081,7.752
	c-1.805,2.15-4.469,3.392-7.275,3.392H191.47c-2.808,0-5.471-1.241-7.275-3.392c-1.806-2.149-2.567-4.987-2.081-7.752l6.922-39.395
	c0.404-2.301,1.615-4.286,3.312-5.686l8.527-71.611c0.253-5.93,3.773-11.076,9.19-14.334
	c-22.353-37.95-38.897-104.296-47.089-189.588l-27.142-33.317c-2.316-2.843-2.789-6.765-1.215-10.077
	c1.573-3.313,4.913-5.423,8.58-5.423h23.353l6.779-31.871c0.933-4.387,4.807-7.523,9.292-7.523H244.1
	c-1.204-1.592-1.918-3.575-1.918-5.725c0-5.247,4.253-9.5,9.5-9.5h43.251c5.247,0,9.5,4.253,9.5,9.5
	c0,2.149-0.714,4.133-1.918,5.725h61.475c4.485,0,8.358,3.137,9.292,7.523l6.78,31.871h15.607
	C413.754,54.619,428.468,69.333,428.468,87.419z M185.978,54.619h174.659l-4.339-20.395H190.315L185.978,54.619z M206.368,395.799
	l-3.584,20.395h141.045l-3.583-20.395H206.368z M334.873,376.799l-8.033-67.437c-0.711-0.446-2.215-1.028-4.299-1.028h-98.474
	c-2.084,0-3.588,0.583-4.298,1.028l-8.03,67.437H334.873z M367.063,73.619H174.444c-0.127,0.002-0.253,0.002-0.382,0h-10.871
	l16.335,20.052c1.189,1.46,1.919,3.241,2.094,5.117c10.967,117.445,34.081,169.039,48.559,190.546h86.259
	C341.559,252.16,359.813,174.391,367.063,73.619z M260.075,265.937h21.525c5.247,0,9.5-4.253,9.5-9.5s-4.253-9.5-9.5-9.5h-21.525
	c-5.247,0-9.5,4.253-9.5,9.5S254.828,265.937,260.075,265.937z M260.213,190.977h21.249c5.247,0,9.5-4.253,9.5-9.5
	s-4.253-9.5-9.5-9.5h-21.249c-5.247,0-9.5,4.253-9.5,9.5S254.966,190.977,260.213,190.977z M260.213,228.457h21.249
	c5.247,0,9.5-4.253,9.5-9.5s-4.253-9.5-9.5-9.5h-21.249c-5.247,0-9.5,4.253-9.5,9.5S254.966,228.457,260.213,228.457z
	 M260.213,153.497h21.249c5.247,0,9.5-4.253,9.5-9.5s-4.253-9.5-9.5-9.5h-21.249c-5.247,0-9.5,4.253-9.5,9.5
	S254.966,153.497,260.213,153.497z"/>
<g>
</g>
<g>
</g>
<g>
</g>
<g>
</g>
<g>
</g>
<g>
</g>
<g>
</g>
<g>
</g>
<g>
</g>
<g>
</g>
<g>
</g>
<g>
</g>
<g>
</g>
<g>
</g>
<g>
</g>
</svg>
