<?xml version="1.0" encoding="iso-8859-1"?>
<!-- Generator: Adobe Illustrator 19.0.0, SVG Export Plug-In . SVG Version: 6.00 Build 0)  -->
<svg version="1.1" id="Capa_1" xmlns="http://www.w3.org/2000/svg" xmlns:xlink="http://www.w3.org/1999/xlink" x="0px" y="0px"
	 viewBox="0 0 428.636 428.636" style="enable-background:new 0 0 428.636 428.636;" xml:space="preserve">
<path id="XMLID_178_" d="M342.33,130.116c5.247,0,9.5-4.253,9.5-9.5V84.541c0-6.396,3.75-11.935,9.167-14.531
	c4.106,8.364,12.712,14.134,22.641,14.134h19.795c13.897,0,25.204-11.307,25.204-25.205c0-13.897-11.306-25.204-25.204-25.204
	h-19.795c-10.886,0-20.182,6.938-23.7,16.623c-15.517,3.627-27.107,17.577-27.107,34.184v36.075
	C332.83,125.863,337.083,130.116,342.33,130.116z M383.637,52.734h19.795c3.42,0,6.204,2.783,6.204,6.205
	c0,3.363-2.841,6.204-6.204,6.204h-19.795c-3.363,0-6.205-2.842-6.205-6.205S380.273,52.734,383.637,52.734z M403.432,123.706
	h-19.795c-10.886,0-20.182,6.938-23.7,16.623c-15.517,3.627-27.107,17.577-27.107,34.184v185.287
	c0,8.879-7.224,16.103-16.103,16.103c-8.879,0-16.104-7.224-16.104-16.103V101.381c0-19.355-15.747-35.103-35.103-35.103
	s-35.103,15.747-35.103,35.103v145.281c0,8.88-7.224,16.104-16.103,16.104h-20.502V156.584c0.338,0.036,0.681,0.055,1.028,0.055
	c5.247,0,9.5-4.253,9.5-9.5v-28.302c0-5.247-4.253-9.5-9.5-9.5c-0.348,0-0.69,0.019-1.028,0.055V86.976
	c0-10.752-8.748-19.5-19.5-19.5H19.5c-10.752,0-19.5,8.748-19.5,19.5v287.228c0,10.753,8.748,19.501,19.5,19.501h154.813
	c10.752,0,19.5-8.748,19.5-19.501v-92.438h20.502c19.355,0,35.103-15.747,35.103-35.104V101.381c0-8.879,7.224-16.103,16.103-16.103
	s16.103,7.224,16.103,16.103v258.418c0,19.355,15.748,35.103,35.104,35.103c19.355,0,35.103-15.747,35.103-35.103V174.512
	c0-6.396,3.75-11.935,9.167-14.531c4.106,8.364,12.712,14.134,22.641,14.134h19.795c13.897,0,25.204-11.307,25.204-25.205
	C428.636,135.012,417.33,123.706,403.432,123.706z M174.813,374.204c0,0.253-0.248,0.501-0.5,0.501H19.5
	c-0.252,0-0.5-0.248-0.5-0.501v-31.705h155.813V374.204z M174.813,323.499H19V198.677h26.615c3.435,0,6.602-1.854,8.283-4.849
	l17.179-30.593l41.678,76.037c1.705,3.111,5.003,5.048,8.547,4.931c3.546-0.08,6.752-2.131,8.313-5.315l19.709-40.211h25.488
	V323.499z M174.813,179.677h-31.412c-3.625,0-6.935,2.063-8.53,5.318l-14.257,29.087l-41.106-74.994
	c-1.659-3.027-4.83-4.916-8.282-4.934c-0.017,0-0.033,0-0.049,0c-3.433,0-6.601,1.853-8.283,4.849l-22.84,40.674H19V86.976
	c0-0.252,0.248-0.5,0.5-0.5h154.813c0.252,0,0.5,0.248,0.5,0.5V179.677z M403.432,155.115h-19.795c-3.363,0-6.205-2.842-6.205-6.205
	s2.841-6.204,6.205-6.204h19.795c3.42,0,6.204,2.783,6.204,6.205C409.636,152.274,406.795,155.115,403.432,155.115z"/>
<g>
</g>
<g>
</g>
<g>
</g>
<g>
</g>
<g>
</g>
<g>
</g>
<g>
</g>
<g>
</g>
<g>
</g>
<g>
</g>
<g>
</g>
<g>
</g>
<g>
</g>
<g>
</g>
<g>
</g>
</svg>
