<?xml version="1.0" encoding="iso-8859-1"?>
<!-- Generator: Adobe Illustrator 19.0.0, SVG Export Plug-In . SVG Version: 6.00 Build 0)  -->
<svg version="1.1" id="Capa_1" xmlns="http://www.w3.org/2000/svg" xmlns:xlink="http://www.w3.org/1999/xlink" x="0px" y="0px"
	 viewBox="0 0 493.572 493.572" style="enable-background:new 0 0 493.572 493.572;" xml:space="preserve">
<path id="XMLID_703_" d="M210.131,167.986c3.621,3.797,3.479,9.811-0.318,13.432l-9.752,9.301c-1.835,1.75-4.196,2.625-6.557,2.625
	s-4.721-0.875-6.556-2.625l-9.754-9.301c-3.797-3.62-3.94-9.634-0.32-13.431c3.621-3.798,9.634-3.94,13.432-0.319l3.197,3.049
	l3.196-3.049C200.497,164.047,206.51,164.19,210.131,167.986z M196.7,347.917l-3.196,3.048l-3.197-3.049
	c-3.796-3.62-9.81-3.478-13.431,0.318c-3.621,3.797-3.478,9.811,0.319,13.432l9.754,9.302c1.835,1.75,4.195,2.625,6.556,2.625
	s4.722-0.875,6.557-2.626l9.752-9.302c3.797-3.621,3.939-9.634,0.318-13.431C206.51,344.439,200.497,344.295,196.7,347.917z
	 M196.699,122.605l-3.195,3.049l-3.196-3.049c-3.797-3.622-9.811-3.479-13.432,0.317c-3.621,3.796-3.479,9.81,0.317,13.431
	l9.754,9.304c1.835,1.751,4.196,2.626,6.557,2.626c2.361,0,4.722-0.875,6.558-2.626l9.752-9.304
	c3.796-3.622,3.938-9.636,0.316-13.432C206.51,119.125,200.496,118.984,196.699,122.605z M196.7,212.729l-3.196,3.048l-3.197-3.049
	c-3.796-3.62-9.81-3.478-13.431,0.318c-3.621,3.797-3.478,9.811,0.319,13.432l9.754,9.302c1.835,1.75,4.195,2.625,6.556,2.625
	s4.722-0.875,6.557-2.625l9.752-9.303c3.797-3.621,3.939-9.634,0.318-13.431C206.51,209.251,200.497,209.107,196.7,212.729z
	 M196.7,302.853l-3.196,3.049l-3.197-3.049c-3.796-3.62-9.81-3.479-13.431,0.318s-3.478,9.811,0.319,13.432l9.754,9.302
	c1.835,1.75,4.195,2.625,6.556,2.625s4.722-0.875,6.557-2.626l9.752-9.302c3.797-3.621,3.939-9.634,0.318-13.431
	C206.51,299.375,200.497,299.233,196.7,302.853z M196.7,257.792l-3.196,3.049l-3.197-3.049c-3.796-3.62-9.81-3.478-13.431,0.318
	c-3.621,3.797-3.478,9.811,0.319,13.432l9.754,9.302c1.835,1.75,4.195,2.625,6.556,2.625s4.722-0.875,6.557-2.626l9.752-9.302
	c3.797-3.621,3.939-9.634,0.318-13.431C206.509,254.313,200.497,254.173,196.7,257.792z M293.515,145.658
	c1.835,1.75,4.195,2.625,6.557,2.625s4.723-0.876,6.558-2.626l9.753-9.304c3.796-3.622,3.938-9.635,0.316-13.432
	c-3.623-3.797-9.635-3.939-13.432-0.316l-3.196,3.049l-3.197-3.05c-3.796-3.618-9.808-3.479-13.432,0.318
	c-3.621,3.797-3.479,9.811,0.318,13.432L293.515,145.658z M303.268,212.729l-3.197,3.05l-3.198-3.05
	c-3.795-3.621-9.812-3.479-13.431,0.319c-3.621,3.797-3.479,9.811,0.319,13.431l9.755,9.302c1.835,1.75,4.195,2.625,6.556,2.625
	s4.722-0.875,6.557-2.625l9.753-9.302c3.797-3.621,3.939-9.635,0.318-13.432C313.077,209.25,307.063,209.107,303.268,212.729z
	 M493.572,246.785c0,19.528-15.887,35.415-35.413,35.415h-65.273c-8.3,0-15.54-4.627-19.275-11.437h-25.399v94.514
	c0,26.543-21.596,48.138-48.14,48.138s-48.139-21.595-48.139-48.138v-94.514h-10.289v94.514c0,26.543-21.596,48.138-48.14,48.138
	c-26.544,0-48.139-21.595-48.139-48.138v-94.514h-25.403c-3.736,6.81-10.977,11.437-19.276,11.437H35.413
	C15.886,282.2,0,266.313,0,246.786c0-19.528,15.886-35.415,35.413-35.415h65.273c8.301,0,15.541,4.627,19.277,11.438h25.402v-94.513
	c0-26.544,21.594-48.139,48.138-48.139c26.545,0,48.141,21.595,48.141,48.139v94.513h10.289v-94.513
	c0-26.544,21.595-48.139,48.138-48.139c26.545,0,48.141,21.595,48.141,48.139v94.513h25.398
	c3.736-6.811,10.976-11.438,19.276-11.438h65.273C477.686,211.371,493.572,227.258,493.572,246.785z M103.656,233.342
	c0-0.056-0.001-0.111-0.005-0.166c-0.004-0.047-0.008-0.094-0.012-0.141c-0.159-1.473-1.447-2.664-2.954-2.664H35.413
	c-9.05,0-16.413,7.363-16.413,16.414c0,9.052,7.363,16.415,16.413,16.415h65.273c1.507,0,2.796-1.192,2.954-2.666
	c0.003-0.046,0.007-0.091,0.011-0.136c0.003-0.056,0.005-0.112,0.005-0.169V233.342z M145.365,241.809h-22.709v9.955h22.709V241.809
	z M222.644,128.296c0-16.067-13.072-29.139-29.14-29.139c-16.067,0-29.139,13.071-29.139,29.139v132.968v104.014
	c0,16.066,13.071,29.138,29.138,29.138h0.001c16.068,0,29.14-13.071,29.14-29.138V128.296z M251.933,241.809h-10.289v9.955h10.289
	V241.809z M329.211,128.296c0-16.067-13.072-29.139-29.14-29.139s-29.139,13.071-29.139,29.139v132.968v104.014
	c0,16.066,13.071,29.138,29.138,29.138h0.001c16.067,0,29.14-13.071,29.14-29.138V128.296z M370.916,241.809h-22.705v9.955h22.705
	V241.809z M474.572,246.786c0-9.052-7.363-16.415-16.413-16.415h-65.273c-1.507,0-2.794,1.191-2.953,2.664
	c-0.004,0.047-0.008,0.094-0.012,0.141c-0.003,0.055-0.005,0.11-0.005,0.166v26.888c0,0.057,0.002,0.113,0.005,0.169
	c0.004,0.045,0.008,0.09,0.012,0.136c0.158,1.474,1.446,2.666,2.953,2.666h65.273C467.209,263.2,474.572,255.837,474.572,246.786z
	 M303.268,167.668l-3.197,3.049l-3.198-3.05c-3.797-3.621-9.81-3.479-13.432,0.32c-3.62,3.798-3.477,9.811,0.32,13.432l9.755,9.301
	c1.835,1.749,4.195,2.624,6.556,2.624s4.722-0.875,6.557-2.625l9.753-9.301c3.797-3.621,3.939-9.635,0.318-13.432
	C313.077,164.189,307.064,164.047,303.268,167.668z M303.268,257.792l-3.197,3.05l-3.198-3.05c-3.795-3.62-9.812-3.479-13.431,0.319
	c-3.621,3.797-3.479,9.811,0.319,13.431l9.755,9.302c1.835,1.75,4.195,2.625,6.556,2.625s4.722-0.875,6.557-2.625l9.753-9.302
	c3.797-3.621,3.939-9.635,0.318-13.432C313.077,254.313,307.063,254.172,303.268,257.792z M303.268,347.916l-3.197,3.05l-3.198-3.05
	c-3.795-3.62-9.812-3.479-13.431,0.319c-3.621,3.797-3.479,9.811,0.319,13.431l9.755,9.302c1.835,1.75,4.195,2.625,6.556,2.625
	s4.722-0.875,6.557-2.625l9.753-9.302c3.797-3.621,3.939-9.635,0.318-13.432C313.077,344.438,307.063,344.296,303.268,347.916z
	 M303.268,302.853l-3.197,3.05l-3.198-3.05c-3.795-3.62-9.812-3.479-13.431,0.319c-3.621,3.797-3.479,9.811,0.319,13.431
	l9.755,9.302c1.835,1.75,4.195,2.625,6.556,2.625s4.722-0.875,6.557-2.625l9.753-9.302c3.797-3.621,3.939-9.635,0.318-13.432
	C313.077,299.374,307.063,299.232,303.268,302.853z"/>
<g>
</g>
<g>
</g>
<g>
</g>
<g>
</g>
<g>
</g>
<g>
</g>
<g>
</g>
<g>
</g>
<g>
</g>
<g>
</g>
<g>
</g>
<g>
</g>
<g>
</g>
<g>
</g>
<g>
</g>
</svg>
