<?xml version="1.0" encoding="iso-8859-1"?>
<!-- Generator: Adobe Illustrator 19.0.0, SVG Export Plug-In . SVG Version: 6.00 Build 0)  -->
<svg version="1.1" id="Capa_1" xmlns="http://www.w3.org/2000/svg" xmlns:xlink="http://www.w3.org/1999/xlink" x="0px" y="0px"
	 viewBox="0 0 450.82 450.82" style="enable-background:new 0 0 450.82 450.82;" xml:space="preserve">
<path id="XMLID_633_" d="M130.006,125.015c-4.836-12.109-7.287-24.912-7.287-38.055c0-34.312,17.037-66.219,45.573-85.35
	c4.357-2.923,10.259-1.757,13.181,2.601c2.922,4.358,1.758,10.26-2.601,13.181c-23.265,15.597-37.153,41.604-37.153,69.568
	c0,10.718,1.996,21.15,5.932,31.009c1.946,4.872-0.427,10.399-5.3,12.345c-1.154,0.462-2.348,0.681-3.52,0.681
	C135.059,130.994,131.49,128.732,130.006,125.015z M271.948,17.395C295.212,32.99,309.1,58.996,309.1,86.96
	c0,10.72-1.996,21.152-5.933,31.007c-1.946,4.873,0.426,10.4,5.298,12.347c1.156,0.462,2.349,0.681,3.521,0.681
	c3.771,0,7.341-2.263,8.825-5.979c4.836-12.107,7.288-24.911,7.288-38.056c0-34.312-17.036-66.217-45.572-85.347
	c-4.359-2.923-10.261-1.757-13.181,2.601C266.426,8.573,267.591,14.474,271.948,17.395z M263.743,86.961
	c0,21.137-17.195,38.332-38.332,38.332s-38.333-17.195-38.333-38.332s17.196-38.332,38.333-38.332S263.743,65.824,263.743,86.961z
	 M244.743,86.961c0-10.66-8.672-19.332-19.332-19.332s-19.333,8.672-19.333,19.332s8.673,19.332,19.333,19.332
	S244.743,97.621,244.743,86.961z M372.6,445.285l-16.382,4.389c-2.859,0.766-5.766,1.146-8.653,1.146
	c-5.793,0-11.52-1.525-16.688-4.509c-7.745-4.472-13.278-11.669-15.582-20.267l-54.692-204.111
	c-2.304-8.598-1.109-17.598,3.361-25.343c4.301-7.448,11.121-12.853,19.283-15.304l-10.988-41.012
	c-12.512,11.008-28.916,17.692-46.851,17.692s-34.338-6.684-46.85-17.69l-10.988,41.01c17.201,5.167,27.324,23.175,22.646,40.646
	l-54.692,204.113c-4.77,17.796-23.13,28.393-40.925,23.629c0,0,0,0-0.001,0l-16.377-4.388c-17.797-4.771-28.396-23.13-23.629-40.926
	l54.691-204.114c4.685-17.465,22.456-27.997,39.935-23.878l14.529-54.224c-5.944-10.377-9.346-22.392-9.346-35.184
	c0-39.153,31.854-71.007,71.007-71.007c39.152,0,71.006,31.854,71.006,71.007c0,12.792-3.399,24.804-9.344,35.181l14.529,54.227
	c17.49-4.121,35.253,6.414,39.933,23.878l54.693,204.113C400.995,422.156,390.395,440.516,372.6,445.285z M161.673,199.361
	l-16.38-4.391c-7.681-2.056-15.597,2.518-17.656,10.196l-54.69,204.111c-2.058,7.677,2.516,15.598,10.194,17.656l16.376,4.387
	h-0.001c7.677,2.062,15.599-2.515,17.656-10.193l54.691-204.112C173.92,209.336,169.349,201.416,161.673,199.361z M277.415,86.961
	c0-28.677-23.33-52.007-52.006-52.007c-28.677,0-52.007,23.33-52.007,52.007c0,28.676,23.33,52.006,52.007,52.006
	C254.085,138.967,277.415,115.637,277.415,86.961z M377.874,409.277L323.18,205.164c-1.723-6.433-7.563-10.686-13.927-10.686
	c-1.231,0-2.482,0.158-3.727,0.492l-16.378,4.389c-3.695,0.99-6.794,3.38-8.729,6.73s-2.454,7.23-1.464,10.926l54.693,204.111
	c2.057,7.679,9.979,12.251,17.653,10.193l16.38-4.388C375.358,424.875,379.932,416.955,377.874,409.277z"/>
<g>
</g>
<g>
</g>
<g>
</g>
<g>
</g>
<g>
</g>
<g>
</g>
<g>
</g>
<g>
</g>
<g>
</g>
<g>
</g>
<g>
</g>
<g>
</g>
<g>
</g>
<g>
</g>
<g>
</g>
</svg>
