<?xml version="1.0" encoding="iso-8859-1"?>
<!-- Generator: Adobe Illustrator 19.0.0, SVG Export Plug-In . SVG Version: 6.00 Build 0)  -->
<svg version="1.1" id="Capa_1" xmlns="http://www.w3.org/2000/svg" xmlns:xlink="http://www.w3.org/1999/xlink" x="0px" y="0px"
	 viewBox="0 0 428.646 428.646" style="enable-background:new 0 0 428.646 428.646;" xml:space="preserve">
<path id="XMLID_225_" d="M367.942,306.091H193.847c-25.819,0-46.824-21.005-46.824-46.824v-94.084
	c10.919-3.379,20.346-12.966,21.135-28.319l5.253-102.411c0.6-11.701-4.773-21.846-14.742-27.83
	c-12.166-7.305-29.157-7.303-41.323,0c-9.968,5.984-15.34,16.129-14.74,27.83l5.255,102.411c0,0.001,0,0.001,0,0.001
	c0.765,14.895,9.661,24.363,20.161,28v94.402c0,36.296,29.529,65.824,65.824,65.824h174.095c22.996,0,41.704,18.709,41.704,41.706
	c0,22.996-18.708,41.704-41.704,41.704H146.624c-56.25,0-102.012-45.763-102.012-102.013V165.135
	c10.854-3.42,20.198-12.989,20.983-28.271l5.251-102.41c0.602-11.702-4.771-21.846-14.74-27.83
	C43.942-0.681,26.949-0.68,14.784,6.623c-9.968,5.985-15.34,16.129-14.738,27.83l5.252,102.411c0,0,0,0.001,0,0.001
	c0.769,14.968,9.747,24.455,20.314,28.053v141.571c0,66.727,54.286,121.013,121.012,121.013h221.318
	c33.472,0,60.704-27.232,60.704-60.705S401.414,306.091,367.942,306.091z M121.582,33.48c-0.243-4.726,1.571-8.182,5.545-10.567
	c6.102-3.664,15.661-3.664,21.763,0c3.974,2.386,5.789,5.843,5.546,10.567l-0.01,0.185h-32.835L121.582,33.48z M138.008,147.553
	c-5.111,0-10.73-3.063-11.172-11.663v0.001l-4.27-83.227h30.886l-4.269,83.225C148.741,144.49,143.12,147.554,138.008,147.553z
	 M19.02,33.479c-0.243-4.725,1.571-8.181,5.544-10.566c6.102-3.663,15.662-3.664,21.763,0c3.974,2.386,5.788,5.842,5.545,10.567
	l-0.01,0.185H19.03L19.02,33.479z M35.445,147.553c-5.111,0-10.73-3.063-11.172-11.663v0.001l-4.268-83.227h30.883L46.62,135.89
	C46.178,144.49,40.557,147.554,35.445,147.553z"/>
<g>
</g>
<g>
</g>
<g>
</g>
<g>
</g>
<g>
</g>
<g>
</g>
<g>
</g>
<g>
</g>
<g>
</g>
<g>
</g>
<g>
</g>
<g>
</g>
<g>
</g>
<g>
</g>
<g>
</g>
</svg>
