<?xml version="1.0" encoding="iso-8859-1"?>
<!-- Generator: Adobe Illustrator 19.0.0, SVG Export Plug-In . SVG Version: 6.00 Build 0)  -->
<svg version="1.1" id="Capa_1" xmlns="http://www.w3.org/2000/svg" xmlns:xlink="http://www.w3.org/1999/xlink" x="0px" y="0px"
	 viewBox="0 0 428.637 428.637" style="enable-background:new 0 0 428.637 428.637;" xml:space="preserve">
<path id="XMLID_195_" d="M214.319,140.56c30.576,0,59.394,9.999,83.336,28.916c1.735,1.371,3.815,2.046,5.887,2.046
	c2.444,0,4.879-0.939,6.723-2.784c12.928-12.937,19.762-28.161,19.762-44.026c0-21.7-12.588-41.802-35.444-56.602
	c-21.58-13.973-50.084-21.668-80.263-21.668c-30.18,0-58.685,7.695-80.264,21.668c-22.856,14.8-35.444,34.901-35.444,56.602
	c0,15.867,6.834,31.091,19.763,44.025c3.405,3.407,8.825,3.728,12.608,0.738C154.922,150.559,183.739,140.56,214.319,140.56z
	 M117.611,124.711c0-15.037,9.508-29.475,26.771-40.652c18.541-12.006,43.379-18.617,69.938-18.617s51.396,6.611,69.936,18.617
	c17.264,11.178,26.771,25.615,26.771,40.652c0,8.424-3.032,16.762-8.841,24.458c-25.813-18.093-56.005-27.609-87.866-27.609
	c-31.864,0-62.057,9.517-87.868,27.608C120.644,141.473,117.611,133.136,117.611,124.711z M325.307,275.098
	c0,61.199-49.789,110.988-110.987,110.988c-5.247,0-9.5-4.253-9.5-9.5s4.253-9.5,9.5-9.5c50.722,0,91.987-41.266,91.987-91.988
	c0-5.247,4.253-9.5,9.5-9.5S325.307,269.851,325.307,275.098z M151.972,194.466c3.583,3.833,3.381,9.845-0.451,13.428
	c-2.429,2.271-4.761,4.7-6.931,7.222c-1.879,2.183-4.534,3.303-7.204,3.303c-2.194,0-4.399-0.756-6.193-2.3
	c-3.977-3.423-4.426-9.421-1.003-13.397c2.616-3.039,5.427-5.969,8.354-8.706C142.377,190.431,148.388,190.634,151.972,194.466z
	 M377.432,124.711c0-33.837-17.328-65.469-48.792-89.066C297.992,12.659,257.393,0,214.319,0
	c-43.074,0-83.674,12.659-114.321,35.645c-31.465,23.598-48.793,55.229-48.793,89.066c0,26.158,10.804,51.758,30.586,72.834
	C68.022,221.019,60.78,247.67,60.78,275.098c0,84.662,68.877,153.539,153.539,153.539c84.661,0,153.537-68.877,153.537-153.539
	c0-27.428-7.242-54.079-21.01-77.553C366.628,176.469,377.432,150.869,377.432,124.711z M348.856,275.098
	c0,74.185-60.354,134.539-134.537,134.539c-74.186,0-134.539-60.354-134.539-134.539c0-26.313,7.603-51.804,21.985-73.715
	c2.523-3.846,1.931-8.947-1.409-12.11c-19.726-18.683-30.151-41.008-30.151-64.562C70.205,66.422,134.854,19,214.319,19
	c79.464,0,144.112,47.422,144.112,105.711c0,23.554-10.426,45.879-30.15,64.562c-3.339,3.163-3.933,8.265-1.409,12.11
	C341.255,223.294,348.856,248.784,348.856,275.098z"/>
<g>
</g>
<g>
</g>
<g>
</g>
<g>
</g>
<g>
</g>
<g>
</g>
<g>
</g>
<g>
</g>
<g>
</g>
<g>
</g>
<g>
</g>
<g>
</g>
<g>
</g>
<g>
</g>
<g>
</g>
</svg>
