<?xml version="1.0" encoding="iso-8859-1"?>
<!-- Generator: Adobe Illustrator 19.0.0, SVG Export Plug-In . SVG Version: 6.00 Build 0)  -->
<svg version="1.1" id="Capa_1" xmlns="http://www.w3.org/2000/svg" xmlns:xlink="http://www.w3.org/1999/xlink" x="0px" y="0px"
	 viewBox="0 0 433.631 433.631" style="enable-background:new 0 0 433.631 433.631;" xml:space="preserve">
<path id="XMLID_679_" d="M372.301,414.631h-81.543v-59.605c0-24.29-19.762-44.052-44.052-44.052h-59.604V199.793H265.8
	c1.959,9.16,10.116,16.05,19.852,16.05h63.233c11.195,0,20.304-9.107,20.304-20.302v-10.497c0-11.194-9.108-20.302-20.304-20.302
	h-63.233c-9.736,0-17.894,6.89-19.853,16.051h-78.697v-45.165c1.441,0.881,3.135,1.389,4.947,1.389c5.247,0,9.5-4.253,9.5-9.5
	V60.414c0-5.247-4.253-9.5-9.5-9.5c-2.073,0-3.99,0.664-5.552,1.79C182.292,22.956,156.662,0,125.772,0H73.943
	c-5.247,0-9.5,4.253-9.5,9.5s4.253,9.5,9.5,9.5h51.829c23.34,0,42.33,18.988,42.33,42.328v353.303H61.33c-5.247,0-9.5,4.253-9.5,9.5
	s4.253,9.5,9.5,9.5h310.97c5.247,0,9.5-4.253,9.5-9.5S377.548,414.631,372.301,414.631z M284.351,190.293v-5.249
	c0-0.693,0.607-1.302,1.3-1.302h63.233c0.694,0,1.304,0.608,1.304,1.302v10.497c0,0.693-0.609,1.302-1.304,1.302h-63.233
	c-0.692,0-1.3-0.608-1.3-1.302V190.293z M187.101,414.631v-71.222l71.222,71.222H187.101z M271.758,401.195l-71.221-71.222h46.169
	c13.813,0,25.052,11.238,25.052,25.052V401.195z"/>
<g>
</g>
<g>
</g>
<g>
</g>
<g>
</g>
<g>
</g>
<g>
</g>
<g>
</g>
<g>
</g>
<g>
</g>
<g>
</g>
<g>
</g>
<g>
</g>
<g>
</g>
<g>
</g>
<g>
</g>
</svg>
