<?xml version="1.0" encoding="iso-8859-1"?>
<!-- Generator: Adobe Illustrator 19.0.0, SVG Export Plug-In . SVG Version: 6.00 Build 0)  -->
<svg version="1.1" id="Capa_1" xmlns="http://www.w3.org/2000/svg" xmlns:xlink="http://www.w3.org/1999/xlink" x="0px" y="0px"
	 viewBox="0 0 433.633 433.633" style="enable-background:new 0 0 433.633 433.633;" xml:space="preserve">
<path id="XMLID_604_" d="M411.695,253.339h-12.081c-8.771,0-16.356,5.175-19.864,12.631l-82.361,19.024
	c-23.946,5.53-38.243,20.534-38.243,40.137v17.564H107.602c-15.017,0-28.953-4.714-39.241-13.274
	c-8.982-7.475-13.929-17.002-13.929-26.828c0-9.822,4.948-19.35,13.931-26.825c10.29-8.562,24.225-13.276,39.239-13.276h218.429
	c26.397,0,51.515-8.804,70.727-24.788c20.515-17.07,31.813-40.042,31.813-64.683c0-24.64-11.297-47.61-31.81-64.683
	c-19.212-15.984-44.331-24.787-70.729-24.787H174.488v-6.399c0-19.604-14.296-34.608-38.242-40.136L53.884,17.99
	C50.376,10.532,42.792,5.358,34.021,5.358H21.937C9.841,5.358,0,15.199,0,27.296v131.063c0,12.096,9.841,21.936,21.937,21.936
	h12.083c8.771,0,16.355-5.174,19.863-12.629l82.361-19.025c23.947-5.528,38.243-20.533,38.243-40.137v-5.952h151.543
	c21.968,0,42.771,7.242,58.576,20.392c16.098,13.397,24.963,31.183,24.963,50.078c0,18.896-8.866,36.681-24.965,50.077
	c-15.806,13.151-36.607,20.394-58.574,20.394H107.602c-19.444,0-37.695,6.275-51.392,17.672
	c-13.398,11.15-20.777,25.863-20.777,41.43c0,15.57,7.378,30.284,20.776,41.434c13.694,11.394,31.946,17.669,51.394,17.669h151.892
	c2.322,17.033,16.118,29.896,37.895,34.923l82.361,19.025c3.507,7.457,11.093,12.631,19.864,12.631h12.081
	c12.097,0,21.938-9.84,21.938-21.936V275.275C433.633,263.18,423.792,253.339,411.695,253.339z M36.957,158.358
	c0,1.591-1.345,2.936-2.936,2.936H21.937c-1.592,0-2.937-1.345-2.937-2.936V27.296c0-1.592,1.345-2.938,2.937-2.938h12.083
	c1.591,0,2.936,1.346,2.936,2.938V158.358z M155.488,108.503c0,14.616-16.446,19.991-23.518,21.624l-76.013,17.559v-15.521h5.375
	c5.247,0,9.5-4.253,9.5-9.5s-4.253-9.5-9.5-9.5h-5.375v-10.838h5.375c5.247,0,9.5-4.253,9.5-9.5s-4.253-9.5-9.5-9.5h-5.375V72.489
	h5.375c5.247,0,9.5-4.253,9.5-9.5s-4.253-9.5-9.5-9.5h-5.375V37.969l76.015,17.56c7.071,1.632,23.517,7.007,23.517,21.623V108.503z
	 M377.677,301.469h-5.371c-5.247,0-9.5,4.253-9.5,9.5s4.253,9.5,9.5,9.5h5.371v10.837h-5.371c-5.247,0-9.5,4.253-9.5,9.5
	s4.253,9.5,9.5,9.5h5.371v10.838h-5.371c-5.247,0-9.5,4.253-9.5,9.5s4.253,9.5,9.5,9.5h5.371v15.521l-76.014-17.56
	c-7.071-1.632-23.518-7.007-23.518-21.623v-4.287v-27.064c0-14.615,16.447-19.99,23.519-21.624l76.013-17.559V301.469z
	 M414.633,406.339c0,1.591-1.345,2.936-2.938,2.936h-12.081c-1.593,0-2.938-1.345-2.938-2.936V275.275
	c0-1.592,1.345-2.937,2.938-2.937h12.081c1.593,0,2.938,1.345,2.938,2.937V406.339z M117.102,382.563c0,5.247-4.253,9.5-9.5,9.5
	c-26.399,0-51.518-8.803-70.729-24.787c-20.514-17.073-31.811-40.044-31.811-64.683s11.298-47.61,31.813-64.682
	c19.21-15.985,44.328-24.789,70.727-24.789c5.247,0,9.5,4.253,9.5,9.5s-4.253,9.5-9.5,9.5c-21.967,0-42.769,7.243-58.573,20.395
	c-16.1,13.396-24.967,31.181-24.967,50.076c0,18.895,8.866,36.68,24.964,50.078c15.804,13.149,36.607,20.392,58.576,20.392
	C112.849,373.063,117.102,377.316,117.102,382.563z M379.202,173.021c0-9.826-4.947-19.354-13.93-26.828
	c-10.287-8.561-24.224-13.274-39.241-13.274c-5.247,0-9.5-4.253-9.5-9.5s4.253-9.5,9.5-9.5c19.449,0,37.701,6.275,51.394,17.669
	c13.398,11.148,20.777,25.863,20.777,41.434c0,15.567-7.38,30.281-20.78,41.432c-13.692,11.395-31.943,17.67-51.391,17.67
	c-5.247,0-9.5-4.253-9.5-9.5s4.253-9.5,9.5-9.5c15.016,0,28.951-4.715,39.237-13.274
	C374.254,192.372,379.202,182.845,379.202,173.021z"/>
<g>
</g>
<g>
</g>
<g>
</g>
<g>
</g>
<g>
</g>
<g>
</g>
<g>
</g>
<g>
</g>
<g>
</g>
<g>
</g>
<g>
</g>
<g>
</g>
<g>
</g>
<g>
</g>
<g>
</g>
</svg>
