<?xml version="1.0" encoding="iso-8859-1"?>
<!-- Generator: Adobe Illustrator 19.0.0, SVG Export Plug-In . SVG Version: 6.00 Build 0)  -->
<svg version="1.1" id="Capa_1" xmlns="http://www.w3.org/2000/svg" xmlns:xlink="http://www.w3.org/1999/xlink" x="0px" y="0px"
	 viewBox="0 0 445.561 445.561" style="enable-background:new 0 0 445.561 445.561;" xml:space="preserve">
<path id="XMLID_56_" d="M426.499,238.695c-12.918-34.326-31.167-41.531-44.201-41.531h-13.254c-1.212-3.222-2.482-6.243-3.806-9.039
	V37.158c0-16.898-13.747-30.646-30.645-30.646h-54.155C279.187,2.729,275.621,0,271.418,0h-97.274c-4.203,0-7.769,2.729-9.021,6.513
	h-54.156c-16.898,0-30.646,13.747-30.646,30.646v150.967c-1.323,2.796-2.593,5.817-3.805,9.039H63.264
	c-13.035,0-31.284,7.205-44.202,41.531c-8.173,21.715-12.674,50.33-12.674,80.573c0,29.469,4.369,56.837,12.302,77.065
	c12.716,32.424,31.258,39.229,44.574,39.229h14.663c0.748,1.688,1.516,3.298,2.304,4.834c1.626,3.17,4.89,5.163,8.452,5.163h42.291
	c3.311,0,6.382-1.723,8.107-4.548c1.015-1.662,1.479-3.564,1.38-5.449H305.1c-0.099,1.885,0.365,3.787,1.38,5.449
	c1.726,2.825,4.797,4.548,8.107,4.548h42.29c3.563,0,6.826-1.993,8.452-5.163c0.788-1.536,1.556-3.146,2.304-4.834h14.665
	c13.316,0,31.858-6.806,44.573-39.229c7.933-20.228,12.302-47.597,12.302-77.064C439.173,289.026,434.672,260.411,426.499,238.695z
	 M63.264,416.563c-13.416,0-22.025-14.773-26.886-27.167c-7.087-18.07-10.99-42.976-10.99-70.128
	c0-56.852,16.991-103.104,37.876-103.104h7.354c-6.709,26.129-10.625,60.13-10.892,96.954c-0.29,40.111,3.878,76.714,11.478,103.445
	H63.264z M322.947,25.513h11.646c6.421,0,11.645,5.225,11.645,11.646v143.659h-23.291V25.513z M280.918,25.513h23.029V44.7h-23.029
	V25.513z M183.644,19h78.274v32.214h-78.274V19z M141.611,25.513h23.032V44.7h-23.032V25.513z M141.605,190.642
	c0.001-0.005,0.001-0.01,0.001-0.015c0-0.001,0-0.002,0-0.004c0.004-0.114,0.005-126.923,0.005-126.923h23.511
	c1.252,3.783,4.818,6.514,9.021,6.514h97.274c4.203,0,7.77-2.73,9.021-6.514h23.508c0,0,0.001,126.773,0.001,126.774
	c0,0.006,0.001,0.012,0.001,0.018c0.027,1.534,1.873,5.847,2.254,6.672H139.355C140.356,194.884,141.681,191.829,141.605,190.642z
	 M99.32,37.158c0-6.421,5.225-11.646,11.646-11.646h11.645v155.305H99.32V37.158z M116.662,426.561H94.719
	c-0.472-1.1-1.606-4.04-1.744-4.349c-18.751-49.901-18.924-156.303-1.045-211.69c0.253-0.569,2.776-7.925,3.959-10.704h21.949
	c-0.402,1.134-1.386,4.037-1.465,4.327c-8.813,27.243-14.046,66.205-14.355,108.974
	C101.689,358.491,107.065,399.377,116.662,426.561z M312.262,416.563H133.299c-16.2-50.129-16.32-145.824-0.788-200.399h180.538
	C328.582,270.738,328.462,366.435,312.262,416.563z M352.581,422.224c-0.134,0.301-0.252,0.609-0.354,0.927
	c-0.451,1.169-0.914,2.308-1.386,3.41h-21.943c9.597-27.184,14.973-68.069,14.644-113.442
	c-0.309-42.756-5.539-81.703-14.347-108.945c-0.084-0.31-1.075-3.231-1.475-4.355h21.949c1.187,2.786,3.707,10.13,3.956,10.691
	C371.51,265.896,371.338,372.323,352.581,422.224z M409.183,389.397c-4.859,12.393-13.469,27.166-26.885,27.166h-7.942
	c7.601-26.731,11.768-63.334,11.478-103.445c-0.266-36.824-4.183-70.825-10.892-96.954h7.356c20.884,0,37.875,46.253,37.875,103.105
	C420.173,346.421,416.27,371.326,409.183,389.397z M283.484,272.035c0,5.247-4.253,9.5-9.5,9.5h-7.951v16.102
	c0,5.247-4.253,9.5-9.5,9.5s-9.5-4.253-9.5-9.5v-16.102h-75.458c-5.247,0-9.5-4.253-9.5-9.5s4.253-9.5,9.5-9.5h102.409
	C279.231,262.535,283.484,266.788,283.484,272.035z"/>
<g>
</g>
<g>
</g>
<g>
</g>
<g>
</g>
<g>
</g>
<g>
</g>
<g>
</g>
<g>
</g>
<g>
</g>
<g>
</g>
<g>
</g>
<g>
</g>
<g>
</g>
<g>
</g>
<g>
</g>
</svg>
