<?xml version="1.0" encoding="iso-8859-1"?>
<!-- Generator: Adobe Illustrator 19.0.0, SVG Export Plug-In . SVG Version: 6.00 Build 0)  -->
<svg version="1.1" id="Capa_1" xmlns="http://www.w3.org/2000/svg" xmlns:xlink="http://www.w3.org/1999/xlink" x="0px" y="0px"
	 viewBox="0 0 428.638 428.638" style="enable-background:new 0 0 428.638 428.638;" xml:space="preserve">
<path id="XMLID_887_" d="M419.138,36.629H132.657c-7.241-14.724-36.473-21.406-65.478-21.406C33.741,15.223,0,24.106,0,43.95
	v340.738c0,19.844,33.741,28.727,67.18,28.727c27.531,0,55.267-6.021,64.206-19.226h287.751c5.247,0,9.5-4.253,9.5-9.5V46.129
	C428.638,40.882,424.384,36.629,419.138,36.629z M115.356,383.918c-2.764,3.349-19.267,10.496-48.176,10.496
	c-28.912,0-45.417-7.147-48.18-10.497v-11.354c12.811,5.25,30.538,7.723,48.18,7.723c17.641,0,35.366-2.473,48.176-7.723V383.918z
	 M115.356,350.79c-2.764,3.349-19.267,10.496-48.176,10.496c-28.912,0-45.417-7.147-48.18-10.497V80.032
	c2.759-3.349,19.265-10.5,48.179-10.5c28.907,0,45.412,7.148,48.177,10.497V350.79z M115.356,46.129v12.125
	c-12.811-5.251-30.535-7.723-48.177-7.723c-17.643,0-35.368,2.473-48.179,7.724V44.721c2.767-3.35,19.273-10.498,48.179-10.498
	c29.028,0,45.551,7.208,48.211,10.539c0.008,0.093,0.017,0.186,0.028,0.277C115.377,45.397,115.356,45.761,115.356,46.129z
	 M409.638,375.189H134.356v-14.128h275.281V375.189z M409.638,342.061H134.356V88.757h275.281V342.061z M409.638,69.757H134.356
	V55.629h275.281V69.757z"/>
<g>
</g>
<g>
</g>
<g>
</g>
<g>
</g>
<g>
</g>
<g>
</g>
<g>
</g>
<g>
</g>
<g>
</g>
<g>
</g>
<g>
</g>
<g>
</g>
<g>
</g>
<g>
</g>
<g>
</g>
</svg>
