<?xml version="1.0" encoding="iso-8859-1"?>
<!-- Generator: Adobe Illustrator 19.0.0, SVG Export Plug-In . SVG Version: 6.00 Build 0)  -->
<svg version="1.1" id="Capa_1" xmlns="http://www.w3.org/2000/svg" xmlns:xlink="http://www.w3.org/1999/xlink" x="0px" y="0px"
	 viewBox="0 0 429.092 429.092" style="enable-background:new 0 0 429.092 429.092;" xml:space="preserve">
<path id="XMLID_660_" d="M69.686,359.02c0,5.247-4.253,9.5-9.5,9.5h-2.024c-5.247,0-9.5-4.253-9.5-9.5s4.253-9.5,9.5-9.5h2.024
	C65.432,349.52,69.686,353.773,69.686,359.02z M108.681,349.52h-2.024c-5.247,0-9.5,4.253-9.5,9.5s4.253,9.5,9.5,9.5h2.024
	c5.247,0,9.5-4.253,9.5-9.5S113.927,349.52,108.681,349.52z M375.938,314.744c4.441,0,8.797,0.873,12.946,2.595
	c8.35,3.468,15.13,10.243,18.603,18.591c1.729,4.154,2.605,8.517,2.605,12.967c0,5.247,4.253,9.5,9.5,9.5s9.5-4.253,9.5-9.5
	c0-6.969-1.368-13.788-4.063-20.266c-5.386-12.948-15.905-23.46-28.86-28.84c-6.472-2.686-13.278-4.047-20.23-4.047
	c-5.247,0-9.5,4.253-9.5,9.5S370.691,314.744,375.938,314.744z M429.092,413.186c0,5.247-4.253,9.5-9.5,9.5H17.068
	c-5.247,0-9.5-4.253-9.5-9.5c0-3.133,1.517-5.912,3.856-7.643c-0.627-1.268-0.979-2.695-0.979-4.206c0-5.247,4.253-9.5,9.5-9.5
	h10.245C17.241,386.565,8.09,373.842,8.09,359.022c0-0.123,0-0.245,0.002-0.367v-78.41c0-0.972,0.149-1.938,0.442-2.865
	L69.869,83.462h-8.516c-19.905,0-41.551-15.395-49.279-35.048L0.661,19.386C-1.258,14.503,1.144,8.989,6.026,7.07
	c4.881-1.924,10.397,0.481,12.317,5.364l11.413,29.027c4.818,12.253,19.583,23.001,31.597,23.001h107.442
	c1.959-9.161,10.116-16.051,19.853-16.051h63.232c11.196,0,20.304,9.107,20.304,20.302v10.496c0,11.195-9.108,20.303-20.304,20.303
	h-63.232c-9.736,0-17.893-6.89-19.853-16.05h-79L46.627,219.949H66.89c33.816,0,61.328,27.512,61.328,61.328v42.33h237.597
	c19.527,0,35.414,15.887,35.414,35.413c0,14.821-9.151,27.545-22.1,32.817h10.246c5.247,0,9.5,4.253,9.5,9.5
	c0,0.811-0.102,1.598-0.292,2.349h21.011C424.839,403.686,429.092,407.939,429.092,413.186z M187.348,79.209
	c0,0.694,0.608,1.303,1.301,1.303h63.232c0.695,0,1.304-0.608,1.304-1.303V68.713c0-0.693-0.609-1.302-1.304-1.302h-63.232
	c-0.693,0-1.301,0.608-1.301,1.302v5.249V79.209z M27.092,327.645c4.909-2.578,10.493-4.038,16.412-4.038h65.714v-42.33
	c0-23.34-18.988-42.328-42.328-42.328H40.618l-13.525,42.763V327.645z M339.439,401.337c0-2.719,1.142-5.171,2.973-6.902H66.909
	c1.831,1.731,2.973,4.184,2.973,6.902c0,0.811-0.102,1.598-0.292,2.349h270.143C339.541,402.935,339.439,402.148,339.439,401.337z
	 M382.228,359.022c0-9.052-7.363-16.415-16.414-16.415H43.504c-8.967,0-16.278,7.227-16.412,16.162v0.253
	c0,0.051,0,0.101-0.001,0.151c0.083,8.98,7.414,16.262,16.413,16.262h322.311C374.865,375.435,382.228,368.072,382.228,359.022z
	 M351.157,349.52h-2.024c-5.247,0-9.5,4.253-9.5,9.5s4.253,9.5,9.5,9.5h2.024c5.247,0,9.5-4.253,9.5-9.5
	S356.404,349.52,351.157,349.52z M302.661,349.52h-2.023c-5.247,0-9.5,4.253-9.5,9.5s4.253,9.5,9.5,9.5h2.023
	c5.247,0,9.5-4.253,9.5-9.5S307.908,349.52,302.661,349.52z M205.672,349.52h-2.024c-5.247,0-9.5,4.253-9.5,9.5s4.253,9.5,9.5,9.5
	h2.024c5.247,0,9.5-4.253,9.5-9.5S210.919,349.52,205.672,349.52z M157.175,349.52h-2.024c-5.247,0-9.5,4.253-9.5,9.5
	s4.253,9.5,9.5,9.5h2.024c5.247,0,9.5-4.253,9.5-9.5S162.421,349.52,157.175,349.52z M254.166,349.52h-2.023
	c-5.247,0-9.5,4.253-9.5,9.5s4.253,9.5,9.5,9.5h2.023c5.247,0,9.5-4.253,9.5-9.5S259.413,349.52,254.166,349.52z"/>
<g>
</g>
<g>
</g>
<g>
</g>
<g>
</g>
<g>
</g>
<g>
</g>
<g>
</g>
<g>
</g>
<g>
</g>
<g>
</g>
<g>
</g>
<g>
</g>
<g>
</g>
<g>
</g>
<g>
</g>
</svg>
