<?xml version="1.0" encoding="iso-8859-1"?>
<!-- Generator: Adobe Illustrator 19.0.0, SVG Export Plug-In . SVG Version: 6.00 Build 0)  -->
<svg version="1.1" id="Capa_1" xmlns="http://www.w3.org/2000/svg" xmlns:xlink="http://www.w3.org/1999/xlink" x="0px" y="0px"
	 viewBox="0 0 433.631 433.631" style="enable-background:new 0 0 433.631 433.631;" xml:space="preserve">
<path id="XMLID_258_" d="M332.131,355.885c5.247,0,9.5-4.253,9.5-9.5s-4.253-9.5-9.5-9.5h-8.828
	c-1.96-9.16-10.118-16.05-19.855-16.05h-25.305v-4.778c0-14.779-12.024-26.804-26.804-26.804h-25.023V278.15h25.314
	c14.62,0,26.513-11.894,26.513-26.512V142.926c0-14.618-11.894-26.512-26.513-26.512h-4.507c0.371-1.017,0.574-2.114,0.574-3.259
	c0-5.247-4.253-9.5-9.5-9.5h-42.765c-5.247,0-9.5,4.253-9.5,9.5c0,1.145,0.203,2.242,0.574,3.259h-4.508
	c-14.62,0-26.514,11.894-26.514,26.512v108.713c0,14.618,11.894,26.512,26.514,26.512h25.318v11.103h-25.025
	c-14.781,0-26.806,12.024-26.806,26.804v4.778H130.18c-9.737,0-17.895,6.89-19.854,16.05h-8.83c-5.247,0-9.5,4.253-9.5,9.5
	s4.253,9.5,9.5,9.5h8.83c1.959,9.161,10.117,16.051,19.854,16.051h48.585v42.692h-13.781c-5.247,0-9.5,4.253-9.5,9.5
	s4.253,9.5,9.5,9.5h23.044c0.157,0.004,0.315,0.004,0.473,0h56.627c0.079,0.002,0.157,0.003,0.236,0.003s0.158-0.001,0.236-0.003
	h23.042c5.247,0,9.5-4.253,9.5-9.5s-4.253-9.5-9.5-9.5h-13.778v-42.692h48.583c9.738,0,17.896-6.89,19.855-16.051H332.131z
	 M181.998,259.15c-4.143,0-7.514-3.37-7.514-7.512V142.926c0-4.142,3.371-7.512,7.514-7.512h69.632c4.143,0,7.513,3.37,7.513,7.512
	v108.713c0,4.142-3.371,7.512-7.513,7.512H181.998z M174.484,316.057c0-4.303,3.502-7.804,7.806-7.804h69.049
	c4.303,0,7.804,3.501,7.804,7.804v4.778h-18.929c-9.735,0-17.892,6.89-19.852,16.05h-7.094c-1.96-9.16-10.118-16.05-19.854-16.05
	h-18.93V316.057z M194.716,351.634c0,0.693-0.608,1.302-1.302,1.302h-5.149H130.18c-0.694,0-1.302-0.608-1.302-1.302v-10.497
	c0-0.693,0.608-1.302,1.302-1.302h63.234c0.693,0,1.302,0.608,1.302,1.302V351.634z M235.865,414.628h-38.1v-43.162
	c7.742-1.696,13.844-7.825,15.503-15.581h7.094c1.659,7.757,7.761,13.886,15.503,15.582V414.628z M304.751,351.634
	c0,0.693-0.609,1.302-1.303,1.302h-58.083h-5.151c-0.692,0-1.3-0.608-1.3-1.302v-10.497c0-0.693,0.607-1.302,1.3-1.302h63.234
	c0.694,0,1.303,0.608,1.303,1.302V351.634z M433.629,61.325c0,5.247-4.253,9.5-9.5,9.5h-2.866v12.972c0,5.247-4.253,9.5-9.5,9.5
	c-1.89,0-3.651-0.552-5.131-1.503v3.083c0,5.247-4.253,9.5-9.5,9.5s-9.5-4.253-9.5-9.5V70.825h-14.616v343.803h24.051
	c5.247,0,9.5,4.253,9.5,9.5s-4.253,9.5-9.5,9.5h-33.315c-0.079,0.002-0.157,0.003-0.236,0.003s-0.158-0.001-0.236-0.003h-33.315
	c-5.247,0-9.5-4.253-9.5-9.5s4.253-9.5,9.5-9.5h24.051V70.825H79.611v343.803h24.052c5.247,0,9.5,4.253,9.5,9.5s-4.253,9.5-9.5,9.5
	H70.348c-0.157,0.004-0.315,0.004-0.473,0H36.56c-5.247,0-9.5-4.253-9.5-9.5s4.253-9.5,9.5-9.5h24.051V70.825H45.997v24.052
	c0,5.247-4.253,9.5-9.5,9.5s-9.5-4.253-9.5-9.5v-3.083c-1.48,0.951-3.241,1.503-5.131,1.503c-5.247,0-9.5-4.253-9.5-9.5V70.825
	H9.501c-5.247,0-9.5-4.253-9.5-9.5s4.253-9.5,9.5-9.5h2.864V38.854c0-5.247,4.253-9.5,9.5-9.5c1.89,0,3.651,0.552,5.131,1.503
	v-3.082c0-5.247,4.253-9.5,9.5-9.5s9.5,4.253,9.5,9.5v24.051h14.615V9.5c0-5.247,4.253-9.5,9.5-9.5s9.5,4.253,9.5,9.5v42.325
	h274.405V9.5c0-5.247,4.253-9.5,9.5-9.5s9.5,4.253,9.5,9.5v42.325h14.616V27.774c0-5.247,4.253-9.5,9.5-9.5s9.5,4.253,9.5,9.5v3.082
	c1.48-0.951,3.241-1.503,5.131-1.503c5.247,0,9.5,4.253,9.5,9.5v12.972h2.866C429.376,51.825,433.629,56.078,433.629,61.325z"/>
<g>
</g>
<g>
</g>
<g>
</g>
<g>
</g>
<g>
</g>
<g>
</g>
<g>
</g>
<g>
</g>
<g>
</g>
<g>
</g>
<g>
</g>
<g>
</g>
<g>
</g>
<g>
</g>
<g>
</g>
</svg>
