<?xml version="1.0" encoding="iso-8859-1"?>
<!-- Generator: Adobe Illustrator 19.0.0, SVG Export Plug-In . SVG Version: 6.00 Build 0)  -->
<svg version="1.1" id="Capa_1" xmlns="http://www.w3.org/2000/svg" xmlns:xlink="http://www.w3.org/1999/xlink" x="0px" y="0px"
	 viewBox="0 0 447.688 447.688" style="enable-background:new 0 0 447.688 447.688;" xml:space="preserve">
<path id="XMLID_76_" d="M447.57,427.175l-18.935-119.452v-32.762c0-5.247-4.253-9.5-9.5-9.5H163.114c-5.247,0-9.5,4.253-9.5,9.5
	v32.762l-18.936,119.452c-0.435,2.745,0.354,5.543,2.159,7.656c1.805,2.114,4.445,3.331,7.224,3.331h128.01
	c4.673,0,8.651-3.397,9.383-8.013l6.847-43.191h5.646l6.847,43.191c0.731,4.615,4.71,8.013,9.383,8.013h128.011
	c2.779,0,5.419-1.217,7.225-3.331C447.217,432.718,448.006,429.92,447.57,427.175z M172.614,284.461h237.022v14.51H172.614V284.461z
	 M318.29,419.162l-6.847-43.191c-0.731-4.615-4.71-8.013-9.383-8.013h-21.872c-4.673,0-8.651,3.397-9.383,8.013l-6.847,43.191
	H155.186l16.041-101.191h239.797l16.04,101.191H318.29z M399.994,340.314c0,5.247-4.253,9.5-9.5,9.5h-17.188
	c-5.247,0-9.5-4.253-9.5-9.5s4.253-9.5,9.5-9.5h17.188C395.741,330.814,399.994,335.066,399.994,340.314z M275.021,245.682v-90.435
	c0-5.068-3.979-9.245-9.042-9.489c-14.838-0.716-26.461-12.916-26.461-27.774V82.067c0-5.247-4.253-9.5-9.5-9.5h-6.2V52.778
	c0-23.85-19.402-43.253-43.251-43.253h-9.303c-13.636,0-25.819,6.343-33.752,16.234c-7.934-9.892-20.117-16.234-33.755-16.234h-9.3
	c-23.85,0-43.254,19.403-43.254,43.253v19.788h-6.203c-5.247,0-9.5,4.253-9.5,9.5v35.917c0,14.858-11.622,27.059-26.459,27.774
	C3.979,146.002,0,150.179,0,155.247v90.435c0,5.247,4.253,9.5,9.5,9.5h256.021C270.769,255.182,275.021,250.929,275.021,245.682z
	 M147.013,52.778c0-13.373,10.879-24.253,24.251-24.253h9.303c13.372,0,24.251,10.88,24.251,24.253v19.788h-16.104
	c-5.247,0-9.5,4.253-9.5,9.5v31.974c0,8.349-2.91,16.029-7.769,22.083l-24.433-47.811V52.778z M137.513,111.475l18.308,35.824
	c-3.731,1.344-7.752,2.076-11.94,2.076h-12.739c-4.188,0-8.208-0.732-11.938-2.075L137.513,111.475z M70.204,52.778
	c0-13.373,10.88-24.253,24.254-24.253h9.3c13.375,0,24.255,10.88,24.255,24.253v35.533l-24.438,47.814
	c-4.86-6.054-7.771-13.736-7.771-22.086V82.067c0-5.247-4.253-9.5-9.5-9.5H70.204V52.778z M256.021,236.182H19v-14.51h237.021
	V236.182z M256.021,202.672H19v-39.254c20.5-5.065,35.501-23.534,35.501-45.435V91.567h22.303v22.474
	c0,29.96,24.375,54.335,54.336,54.335h12.739c29.96,0,54.335-24.375,54.335-54.335V91.567h22.303v26.417
	c0,21.9,15.002,40.369,35.503,45.435V202.672z"/>
<g>
</g>
<g>
</g>
<g>
</g>
<g>
</g>
<g>
</g>
<g>
</g>
<g>
</g>
<g>
</g>
<g>
</g>
<g>
</g>
<g>
</g>
<g>
</g>
<g>
</g>
<g>
</g>
<g>
</g>
</svg>
